<?xml version="1.0" standalone="no"?><!DOCTYPE svg PUBLIC "-//W3C//DTD SVG 1.1//EN" "http://www.w3.org/Graphics/SVG/1.1/DTD/svg11.dtd"><svg t="1722902803355" class="icon" viewBox="0 0 1024 1024" version="1.1" xmlns="http://www.w3.org/2000/svg" p-id="21372" id="mx_n_1722902803357" xmlns:xlink="http://www.w3.org/1999/xlink" width="200" height="200"><path d="M128 128h768v768H128z" fill="#FFFFFF" p-id="21373"></path><path d="M928 928H128a32 32 0 0 1-32-32V96h800a32 32 0 0 1 32 32v800zM896 128H288v160H128v608h448V576h320V128z m-160 640h-128v128h128v-128z m160 0h-128v128h128v-128z m0-160h-128v128h128v-128z m-160 0h-128v128h128v-128zM256 128H128v128h128V128z" fill="#63707E" p-id="21374"></path><path d="M896 576v320H576V576h320zM256 128v128H128V128h128z" fill="#63707E" opacity=".198" p-id="21375"></path><path d="M288 608v288H256v-288h32z m-32-32v32H128v-32h128zM896 256v32h-288V256h288z m-288-128v128h-32V128h32z" fill="#63707E" opacity=".496" p-id="21376"></path><path d="M288 288h288v288H288z" fill="#30AD98" opacity=".402" p-id="21377"></path><path d="M608 256v352H256V256h352z m-32 32H288v288h288V288z" fill="#30AD98" p-id="21378"></path></svg>